PathFileType	4	(X/Y/Z)	6_2_35_p1_0-328.trc
DataRate	CameraRate	NumFrames	NumMarkers	Units	OrigDataRate	OrigDataStartFrame	OrigNumFrames
59.0	59.0	4	27	m	59.0	0	329
Frame#	Time	RHip			RKnee			RAnkle			RBigToe			RSmallToe			RHeel			LHip			LKnee			LAnkle			LBigToe			LSmallToe			LHeel			Neck			Head			Nose			RShoulder			RElbow			RWrist			RThumb			RIndex			RPinky			LShoulder			LElbow			LWrist			LThumb			LIndex			LPinky			
		X1	Y1	Z1	X2	Y2	Z2	X3	Y3	Z3	X4	Y4	Z4	X5	Y5	Z5	X6	Y6	Z6	X7	Y7	Z7	X8	Y8	Z8	X9	Y9	Z9	X10	Y10	Z10	X11	Y11	Z11	X12	Y12	Z12	X13	Y13	Z13	X14	Y14	Z14	X15	Y15	Z15	X16	Y16	Z16	X17	Y17	Z17	X18	Y18	Z18	X19	Y19	Z19	X20	Y20	Z20	X21	Y21	Z21	X22	Y22	Z22	X23	Y23	Z23	X24	Y24	Z24	X25	Y25	Z25	X26	Y26	Z26	X27	Y27	Z27	
0	0.0	0.2564579091145656	0.4334006248002866	0.7437366471976165	0.29415098240598303	0.45525477044886964	1.1377967872008372	0.2783325712370375	0.5863314960389047	1.510190108290451	0.2733201752571814	0.35541408907076816	1.5036792286437481	0.3332539578043119	0.43530874263007113	1.5346773509216722	0.2616561467672081	0.6003712612601557	1.556398792373062	0.05589688823057802	0.4454386774514578	0.7670513017142092	0.05335124248869077	0.4310125655248058	1.1350150237629313	0.10455829181832084	0.5308101688611206	1.5122126941327931	0.10309485348101008	0.39873193866024426	1.552849048131297	0.05994945433662257	0.39003130518719803	1.5122628898676505	0.11783362012137155	0.6083528242667637	1.5694459069432194	0.11617993101647905	0.44720266330431535	0.21594473960320307	0.1246683001970867	0.35420120158732965	-0.03785609864968154	0.11120152130000768	0.2772459321681155	0.10026404355348588	0.2739367623293368	0.41149807122046567	0.2604396813296562	0.3123748782716427	0.3689410385687609	0.5042282448316949	0.1870981186020033	0.3311327799125	0.6661083293101275	0.11231921077438146	0.3267091094871417	0.7473520993304201	0.10409542114789427	0.3371326729515774	0.7705769805058365	0.11385539483851885	0.33792394108070495	0.7825635529136352	-0.021805703729682355	0.4523479486015045	0.2729546635989838	-0.024655489767392586	0.39703105271093037	0.5017333766180924	0.07861640631491264	0.3319747838196693	0.6642398149803813	0.12868710495228788	0.31172053948466416	0.7176604239986676	0.1271138040419198	0.30141123254755353	0.7463463612545328	0.11637431227231705	0.32612197799309156	0.7618744547365037
1	0.01694915254237288	0.25650930946145417	0.43317120043532964	0.7434890991603738	0.29413490388751035	0.4551137523292741	1.138118718038637	0.27889898324612905	0.5851418369762554	1.5141670809451486	0.273403892205847	0.35572680757314246	1.503911825020708	0.3338566277611154	0.43387127925556085	1.5381957967574544	0.26199159949308043	0.5989265447877921	1.5600783250986994	0.05560077253696226	0.4451197987130471	0.766958783190834	0.05727091027607669	0.44553091452635485	1.1459949442693105	0.10471255293780171	0.5310641561721405	1.5121528236936672	0.10735842683853954	0.39972079898167434	1.552753425314055	0.061045713266024586	0.39210888661959814	1.517746121814653	0.11916628234990675	0.6105513073589699	1.5753020689419739	0.11621321799441695	0.4471441251081668	0.21596372818178608	0.12040244123219927	0.36621795632967297	-0.036544535796661566	0.11107162913803179	0.2773837847562507	0.10021930354018085	0.277864570343774	0.39819652235866665	0.2578079397048959	0.3124693618226276	0.3689550664444106	0.5041455276149489	0.18764908403002	0.3303008753699943	0.669498823401338	0.11228129179741084	0.3270713713456818	0.7476561504157273	0.10806888895681889	0.3392497412769831	0.7706229981514446	0.11826362189234504	0.3262690196531218	0.7744466870503802	-0.021720010660303716	0.45233670827298467	0.2729454593498693	-0.0319808676795638	0.397611134768091	0.5024716475907943	0.07863073892002652	0.3319072736432687	0.6640551391319568	0.12056612078637051	0.3134649645827361	0.7230016070782468	0.12219397918982863	0.3139172825068187	0.7509978252642058	0.11643091954455259	0.3261774991681384	0.7607725758615361
2	0.03389830508474576	0.25652438148370077	0.4331951606218707	0.7435230680440479	0.2946925420132076	0.4540359786519076	1.1412401216545058	0.2789649913998228	0.5851291632770983	1.514271503092369	0.27330113595592737	0.35564713440295936	1.503904019746302	0.33393690416576594	0.43387310900274084	1.5383402571504337	0.2621156171294518	0.5988665030933109	1.5601273653849146	0.05560679753503262	0.445196467302998	0.7667767678757379	0.05625303570177413	0.44405402887729367	1.1406382072304397	0.10481059095634153	0.5311566020652528	1.5118018690043435	0.09790013108033876	0.4120444914559669	1.5616255097904315	0.06097735498862564	0.39221799966081616	1.517647012372733	0.1238661963524403	0.5961985172067413	1.5615481680870658	0.11620828951174188	0.4470642430423531	0.21594582892616443	0.12047261236628884	0.3661529949707612	-0.03661701748230733	0.11113780804409262	0.2775748932284469	0.10027388224678951	0.27389432404791153	0.4113359813201378	0.2604342830545884	0.31244869123286945	0.36893953027516885	0.5040465576210401	0.1884637886942547	0.33142860883930764	0.6734464073109331	0.11255337405184347	0.32671258791979474	0.7480931464381265	0.10814837498191864	0.3388981083266974	0.7709709106937394	0.11757482458229972	0.3268298149679338	0.7709143299580274	-0.02174230137180479	0.4522314056663101	0.27293107426239327	-0.029924402634956538	0.4099800332007854	0.5053174643143717	0.07866853581170292	0.33206677127201256	0.6641079956236766	0.11932189776794493	0.3259584880696683	0.7195288980821325	0.12602910746898824	0.3147872122757435	0.7510289472440816	0.11161989440573064	0.33776691197887243	0.7652225168526238
3	0.05084745762711865	0.25598053253924136	0.43425892036308344	0.7400849029119744	0.2947625576401715	0.45395771098281296	1.1412432102389911	0.28033576606746224	0.5869644168342268	1.5200849589903678	0.2732812887631157	0.35560386382349474	1.5038422975890062	0.3338745938204989	0.43384434988635034	1.5382988077221564	0.2634833737851598	0.6011798213292889	1.5662194856470788	0.05545633269484581	0.44499791416631695	0.7667483636341329	0.05624779706861358	0.44409669612881614	1.1406448340328288	0.10480412778711727	0.5311929960103686	1.5120699641512154	0.10733245821438153	0.3995544544363194	1.5524598134281256	0.06108302208539458	0.39190711223591046	1.517432404941029	0.12885313221796016	0.5971418313681971	1.5664227232209378	0.11203522065765154	0.44499297830122736	0.21602064758676176	0.12057116787191594	0.366049970789477	-0.03664913145516246	0.1111892491202845	0.2774932280014916	0.10024805302149399	0.27773874199088855	0.3981459667752533	0.25788886036326947	0.31244265335515653	0.36892326365969685	0.504052811124447	0.18844219794682568	0.33141790248040165	0.67351646917596	0.11253717562062657	0.3270489615328989	0.7478527670049568	0.10941882009885394	0.34070838106581275	0.7715394003992536	0.11765318746740923	0.32715560530058035	0.7713979081457664	-0.016446224699446226	0.43959536137477223	0.27038238671320064	-0.029930559380983435	0.4102747386991704	0.5054278951219939	0.07870270597775075	0.33205630939106473	0.6640775863823495	0.1248454101452657	0.31500316737019834	0.7193398147851711	0.1262128655476302	0.3150247862939582	0.7509033811684946	0.11651962859215081	0.326104452174864	0.7605868922748975
